<svg xmlns="http://www.w3.org/2000/svg" viewBox="0 0 240 240" role="img" aria-labelledby="title">
	<title id="title">Aki</title>
	<rect width="240" height="240" rx="28" fill="#f6f1e5"/>
	<circle cx="120" cy="82" r="36" fill="#4a3b2d"/>
	<path d="M60 206c9-50 40-78 60-78s51 28 60 78" fill="#9a6f73"/>
	<path d="M80 82c14-42 66-46 82-2-28-11-53-9-82 2z" fill="#2f332d"/>
	<path d="M154 54c16 2 25 14 25 28-16 0-28-9-32-23 6-3 13-5 21-5" fill="#8f7b42"/>
	<path d="M153 63c10 8 17 16 22 25" stroke="#fbfaf4" stroke-width="5" stroke-linecap="round"/>
</svg>
