<svg xmlns="http://www.w3.org/2000/svg" viewBox="0 0 240 240" role="img" aria-labelledby="title">
	<title id="title">Yori</title>
	<rect width="240" height="240" rx="28" fill="#f6f1e5"/>
	<circle cx="120" cy="82" r="36" fill="#4a3b2d"/>
	<path d="M60 206c9-50 40-78 60-78s51 28 60 78" fill="#687661"/>
	<path d="M80 80c14-42 66-46 82-2-28-11-53-9-82 2z" fill="#1f211e"/>
	<path d="M166 188v-48" stroke="#7b644d" stroke-width="6" stroke-linecap="round"/>
	<path d="M166 158c-17-3-26-13-27-29 17 2 27 12 27 29zM166 154c16-8 29-6 39 6-15 8-28 6-39-6z" fill="#8f7b42"/>
</svg>
